<svg xmlns="http://www.w3.org/2000/svg" version="1.1" xmlns:xlink="http://www.w3.org/1999/xlink" width="512" height="512" x="0" y="0" viewBox="0 0 36 36" style="enable-background:new 0 0 512 512" xml:space="preserve"><g><path d="M30 10.25h-4.25V9c0-4.27-3.48-7.75-7.75-7.75S10.25 4.73 10.25 9v1.25H6c-.96 0-1.75.79-1.75 1.75v21c0 .96.79 1.75 1.75 1.75h24c.96 0 1.75-.79 1.75-1.75V12c0-.96-.79-1.75-1.75-1.75zM11.75 9c0-3.45 2.8-6.25 6.25-6.25s6.25 2.8 6.25 6.25v1.25h-12.5zm18.5 24c0 .14-.11.25-.25.25H6c-.14 0-.25-.11-.25-.25V12c0-.14.11-.25.25-.25h4.25V14c0 .41.34.75.75.75s.75-.34.75-.75v-2.25h12.5V14c0 .41.34.75.75.75s.75-.34.75-.75v-2.25H30c.14 0 .25.11.25.25z" fill="#000000" opacity="1" data-original="#000000"></path></g></svg>